<svg xmlns="http://www.w3.org/2000/svg" xmlns:xlink="http://www.w3.org/1999/xlink" aria-hidden="true" role="img" class="iconify iconify--logos" width="31.88" height="32" preserveAspectRatio="xMidYMid meet" viewBox="0 0 256 257"><defs><linearGradient id="IconifyId1813088fe1fbc01fb466" x1="-.828%" x2="57.636%" y1="7.652%" y2="78.411%"><stop offset="0%" stop-color="#41D1FF"></stop><stop offset="100%" stop-color="#BD34FE"></stop></linearGradient><linearGradient id="IconifyId1813088fe1fbc01fb467" x1="43.376%" x2="50.316%" y1="2.241%" y2="89.03%"><stop offset="0%" stop-color="#FFBD4F"></stop><stop offset="100%" stop-color="#FF964C"></stop></linearGradient></defs><path fill="url(#IconifyId1813088fe1fbc01fb466)" d="M255.153 37.938L132.875 2.078a5.159 5.159 0 0 0-5.808 0L2.86 37.938a5.145 5.145 0 0 0-2.859 5.065l22.088 171.726a5.152 5.152 0 0 0 2.86 4.047l111.083 41.741a5.158 5.158 0 0 0 5.809 0l111.083-41.741a5.152 5.152 0 0 0 2.86-4.047l22.088-171.726a5.145 5.145 0 0 0-2.86-5.065Z"></path><path fill="url(#IconifyId1813088fe1fbc01fb467)" d="M128 256V0l111.083 41.741L128 256Z"></path><path fill="currentColor" d="M128 256V0L2.86 37.938L128 256Z"></path></svg>